<?xml version="1.0" encoding="UTF-8" standalone="no"?>
<svg
   xmlns:dc="http://purl.org/dc/elements/1.1/"
   xmlns:cc="http://creativecommons.org/ns#"
   xmlns:rdf="http://www.w3.org/1999/02/22-rdf-syntax-ns#"
   xmlns:svg="http://www.w3.org/2000/svg"
   xmlns="http://www.w3.org/2000/svg"
   xmlns:sodipodi="http://sodipodi.sourceforge.net/DTD/sodipodi-0.dtd"
   xmlns:inkscape="http://www.inkscape.org/namespaces/inkscape"
   inkscape:version="1.0 (4035a4fb49, 2020-05-01)"
   sodipodi:docname="our-pattern-bg.svg"
   id="svg1501"
   version="1.1"
   height="657"
   width="697">
  <metadata
     id="metadata1505">
    <rdf:RDF>
      <cc:Work
         rdf:about="">
        <dc:format>image/svg+xml</dc:format>
        <dc:type
           rdf:resource="http://purl.org/dc/dcmitype/StillImage" />
        <dc:title></dc:title>
      </cc:Work>
    </rdf:RDF>
  </metadata>
  <sodipodi:namedview
     inkscape:current-layer="g1499"
     inkscape:window-maximized="1"
     inkscape:window-y="-8"
     inkscape:window-x="-8"
     inkscape:cy="266.66471"
     inkscape:cx="348.5"
     inkscape:zoom="1.2937595"
     showgrid="false"
     id="namedview1503"
     inkscape:window-height="1017"
     inkscape:window-width="1920"
     inkscape:pageshadow="2"
     inkscape:pageopacity="0"
     guidetolerance="10"
     gridtolerance="10"
     objecttolerance="10"
     borderopacity="1"
     bordercolor="#666666"
     pagecolor="#ffffff" />
  <defs
     id="defs1481">
    <linearGradient
       y2="22.772%"
       y1="70.497%"
       x2="100%"
       x1="31.368%"
       id="a">
      <stop
         id="stop1476"
         stop-color="#9975D0"
         offset="0%" />
      <stop
         id="stop1478"
         stop-color="#4A3FDB"
         offset="100%" />
    </linearGradient>
  </defs>
  <g
     id="g1499"
     fill-rule="evenodd"
     fill="none">
    <path
       id="path1483"
       transform="matrix(0 1 1 0 97 -97)"
       d="M233.996 231.082c-62.714 60.37 48.746 169.37 176.07 259.677 127.324 90.307 187.825 151.88 269.763 73.005 81.938-78.874 114.518-247.228 0-332.682-114.518-85.453-383.12-60.369-445.833 0z"
       fill="url(#a)" />
    <path
       style="fill:#d8d3e2;fill-opacity:1"
       id="path1485"
       d="M14.885 304.531c-51.873-49.833 40.32-139.81 145.634-214.355C265.833 15.63 315.877-35.197 383.651 29.912c67.774 65.108 94.722 204.08 0 274.62-94.722 70.539-316.893 49.832-368.766 0z"
       fill="#F4F4FC" />
    <g
       id="g1495"
       stroke-width="4"
       stroke="#D3629D">
      <path
         id="path1487"
         d="M344 45.087L364.087 25l20.088 20.087L404.262 25l20.088 20.087L444.437 25" />
      <path
         id="path1489"
         d="M344 63.087L364.087 43l20.088 20.087L404.262 43l20.088 20.087L444.437 43" />
      <path
         id="path1491"
         d="M344 81.087L364.087 61l20.088 20.087L404.262 61l20.088 20.087L444.437 61" />
      <path
         id="path1493"
         d="M344 99.087L364.087 79l20.088 20.087L404.262 79l20.088 20.087L444.437 79" />
    </g>
    <path
       id="path1497"
       d="M667 640a3 3 0 110 6 3 3 0 010-6zm-22 0a3 3 0 110 6 3 3 0 010-6zm-22 0a3 3 0 110 6 3 3 0 010-6zm-22 0a3 3 0 110 6 3 3 0 010-6zm-22 0a3 3 0 110 6 3 3 0 010-6zm-22 0a3 3 0 110 6 3 3 0 010-6zm-22 0a3 3 0 110 6 3 3 0 010-6zm-22 0a3 3 0 110 6 3 3 0 010-6zm-22 0a3 3 0 110 6 3 3 0 010-6zm0-22a3 3 0 110 6 3 3 0 010-6zm176 0a3 3 0 110 6 3 3 0 010-6zm-22 0a3 3 0 110 6 3 3 0 010-6zm-22 0a3 3 0 110 6 3 3 0 010-6zm-22 0a3 3 0 110 6 3 3 0 010-6zm-22 0a3 3 0 110 6 3 3 0 010-6zm-22 0a3 3 0 110 6 3 3 0 010-6zm-22 0a3 3 0 110 6 3 3 0 010-6zm-22 0a3 3 0 110 6 3 3 0 010-6zm0-22a3 3 0 110 6 3 3 0 010-6zm22 0a3 3 0 110 6 3 3 0 010-6zm22 0a3 3 0 110 6 3 3 0 010-6zm22 0a3 3 0 110 6 3 3 0 010-6zm22 0a3 3 0 110 6 3 3 0 010-6zm22 0a3 3 0 110 6 3 3 0 010-6zm22 0a3 3 0 110 6 3 3 0 010-6zm22 0a3 3 0 110 6 3 3 0 010-6zm-176 0a3 3 0 110 6 3 3 0 010-6zm22-22a3 3 0 110 6 3 3 0 010-6zm22 0a3 3 0 110 6 3 3 0 010-6zm22 0a3 3 0 110 6 3 3 0 010-6zm22 0a3 3 0 110 6 3 3 0 010-6zm22 0a3 3 0 110 6 3 3 0 010-6zm22 0a3 3 0 110 6 3 3 0 010-6zm22 0a3 3 0 110 6 3 3 0 010-6zm22 0a3 3 0 110 6 3 3 0 010-6zm-176 0a3 3 0 110 6 3 3 0 010-6z"
       fill="#CF6BCB" />
  </g>
</svg>
